<?xml version="1.0" ?><!DOCTYPE svg  PUBLIC '-//W3C//DTD SVG 1.1//EN'  'http://www.w3.org/Graphics/SVG/1.1/DTD/svg11.dtd'><svg enable-background="new 0 0 128 128" height="128px" version="1.1" viewBox="0 0 128 128" width="128px" xml:space="preserve" xmlns="http://www.w3.org/2000/svg" xmlns:xlink="http://www.w3.org/1999/xlink"><g id="bg"><circle cx="-488" cy="-74" fill="#E6E7E8" r="64"/><circle cx="-350" cy="-74" fill="#E6E7E8" r="64"/><circle cx="-212" cy="-74" fill="#E6E7E8" r="64"/><circle cx="-74" cy="-74.25" fill="#E6E7E8" r="64"/><circle cx="64" cy="-74.25" fill="#E6E7E8" r="64"/><circle cx="-488" cy="64" fill="#E6E7E8" r="64"/><circle cx="-350" cy="64" fill="#E6E7E8" r="64"/><circle cx="-212" cy="64" fill="#E6E7E8" r="64"/><circle cx="-74" cy="64" fill="#E6E7E8" r="64"/><circle cx="64" cy="64" fill="#E6E7E8" r="64"/></g><g id="icon"><g><path d="M-488-50.25v-40.599h-1.766l-1.765-4.493l-0.963,8.986c0,0-4.173,0.481-6.9-1.444c-2.729-1.926-5.296-3.691-5.296-9.949    h-31.613c0,0,14.282,5.938,14.282,26.959C-522.021-70.79-492.975-74.803-488-50.25z"/><path d="M-488-50.25v-40.599h1.765l1.766-4.493l0.963,8.986c0,0,4.172,0.481,6.9-1.444c2.728-1.926,5.295-3.691,5.295-9.949    h31.613c0,0-14.282,5.938-14.282,26.959C-453.98-70.79-483.025-74.803-488-50.25z"/></g><g><circle cx="-350" cy="-74" fill="#6D6F71" r="43.375"/><circle cx="-349.808" cy="-73.603" fill="#FFFFFF" r="36.146"/><circle cx="-350.001" cy="-73.603" fill="#6D6F71" r="28.916"/><circle cx="-350" cy="-73.603" r="21.687"/><polygon fill="#FFFFFF" points="-349.999,-95.348 -343.619,-82.417 -329.349,-80.345 -339.674,-70.279 -337.236,-56.066     -349.999,-62.777 -362.763,-56.066 -360.325,-70.279 -370.651,-80.345 -356.381,-82.417   "/></g><polygon points="-187.5,-113.707 -225,-78.207 -217.5,-78.207 -231.5,-58.207 -222.5,-58.207 -236,-35.707 -198,-70.707    -206.5,-70.707 -192.5,-88.207 -201.613,-88.221  "/><g><rect fill="#414042" height="11.087" width="53.801" x="-100.9" y="-107.994"/><rect fill="#414042" height="11.086" width="53.801" x="-100.9" y="-51.592"/><g><path d="M-74.163-89.82c8.678,0,15.737,7.06,15.737,15.738c0,8.677-7.06,15.736-15.737,15.736     S-89.9-65.405-89.9-74.082C-89.9-82.76-82.841-89.82-74.163-89.82 M-74.163-100.82c-14.767,0-26.737,11.971-26.737,26.738     c0,14.766,11.971,26.736,26.737,26.736s26.737-11.971,26.737-26.736C-47.426-88.85-59.396-100.82-74.163-100.82L-74.163-100.82z" fill="#414042"/></g></g><path d="M31.75-93.022l2.619-4.911c0,0,30.173-8.901,42.891-11.459c9.822-1.977,14.897,1.298,16.698,5.566   c1.655,3.924,2.292,14.23-7.857,19.317c-9.303,4.662-9.495,4.256-9.495,4.256L96.25-38.018L58.271-71.74l-8.186,24.556   L31.75-41.619l15.716-46.819l18.008-3.602l-2.947,8.186c0,0,11.173-1.966,10.805-9.167c-0.327-6.396-6.548-5.566-11.459-5.566   s-18.99,2.62-21.282,3.602C38.298-94.004,31.75-93.022,31.75-93.022z"/><g><path d="M-470.325,84.51c0,0-19.825,7.644-34.396,0c0,0-0.955-16.242-18.153-20.303c0,0,8.36-11.704,23.17-3.822    c0,0,10.032-16.004,0-22.691c0,0,16.103-0.013,21.02,21.02c0,0,16.178-18.221,25.797-3.104    C-451.216,58.235-465.548,44.62-470.325,84.51z"/><circle cx="-499.585" cy="36.141" r="3.941"/><circle cx="-451.574" cy="55.488" r="3.941"/><circle cx="-524.427" cy="63.371" r="3.941"/></g><g><path d="M-349.808,47.208c0,0-0.958-0.124-1-0.333s-0.387-0.199-0.668,0.166s-0.406,0.834-0.688,0.834s-0.438-0.213-0.312-1.138    s1.094-2.237,1.094-2.237s-1.562,0.469-1.906,1s-0.312,1.469-0.312,1.469l-0.001,0.594c0,0-2.687-2.812-3.374-3.594    s-1.219-0.438-2.781-0.312s-4.625,0.344-5.5,0.375s-2.906-0.312-2.906-0.312s-0.125-5.969,0.75-9.219s0.875-3.25,0.875-3.25    s1.156-6.281,1.406-7.281s0.875-2.844,0.875-3.406s0-0.774,0-0.774l-4.125,11.337c0,0-2.531,9.094-2.938,10.844    s-0.375,2.531-0.375,2.531s2,2.594,2.719,2.594s0.906-0.875,0.906-0.875s0.406-0.281,0.719-0.312s6.406-0.062,6.812-0.031    s2.812,0.156,2.812,0.156s1.094,1.188,1.438,1.844s0.531,1.406,0.531,1.406s-2.375-0.812-2.812-1.125s-1.531-0.875-2.469-0.719    s-2.844,1.188-4.312,1.469s-6.312,1.531-7.438,1.75s-3.219,0.875-3.219,0.875s0.281-10.75,1.062-13.406s1.875-7.969,2.281-9.094    s2.062-5.281,2.156-5.469s1.219-2.406,1.219-2.781s-2.219,3.656-2.219,3.656s-4.281,9.156-4.781,10.906s-2.281,7.469-2.469,8.5    s-0.719,4.875-1,5.844s-0.562,1.844-0.562,1.844s1.625,1.375,2.5,2.25s1.812,1.438,1.812,1.438s1.25-1.031,2.25-1.656    s4.531-1.688,5.594-2.094s5.562-1.438,7.812-1.219s2.562,0.438,3.375,1s0.969,1,0.969,1s-3.312,0.469-4.406,0.469    s-3.094-0.094-3.094-0.094s-5.719,5.594-6.75,6.469s-4.812,4.156-5.906,4.969s-2.688,2.312-3.562,2.688s-1.911,0.531-2.531,0.219    s-0.62-0.438-0.62-0.438s-0.067,6.812,0.339,10.031s1.125,8.188,3.062,13.562s6.75,14.75,6.75,14.75s-4.812-11.125-5.625-20.062    s-0.438-14.375-0.438-14.375s8.625-8.312,10.875-10.25s4.5-4.875,6.188-5.062s5.688-0.688,5.688-0.688s-5.312,5.125-6.312,5.688    s-1.375,0.125-1.375,0.125l-0.5-0.062c0,0-0.188,8.562,0.125,12.688s1,16,1.938,22.062s2.875,12.438,3.25,13.375    s1.812,4.312,2.312,5.062s1.438,1.459,1.438,1.459s-2.812-4.834-3.812-9.834s-2.375-8.938-2.438-17.812s0-15.125,0-15.125    s0.25-6,0.375-7.062s0.125-1.062-0.312-1.5s-0.5-0.375,0-1.312s2.438-3,2.438-3s1.688-2,2.5-2.5s0.812-0.5,0.812-0.5    s0.812-0.25,0.125,1.312s-1.438,1.938-1.375,2.875s0.75,6.688,1.438,9.875s2.438,6.688,3.062,8.125S-349.977,82-349.977,82    s-1.476-2.75,0.169-2.125"/><path d="M-349.808,47.208c0,0,0.958-0.124,1-0.333s0.387-0.199,0.668,0.166s0.406,0.834,0.688,0.834s0.438-0.213,0.312-1.138    s-1.094-2.237-1.094-2.237s1.562,0.469,1.906,1s0.312,1.469,0.312,1.469l0.001,0.594c0,0,2.687-2.812,3.374-3.594    s1.219-0.438,2.781-0.312s4.625,0.344,5.5,0.375s2.906-0.312,2.906-0.312s0.125-5.969-0.75-9.219s-0.875-3.25-0.875-3.25    s-1.156-6.281-1.406-7.281s-0.875-2.844-0.875-3.406s0-0.774,0-0.774l4.125,11.337c0,0,2.531,9.094,2.938,10.844    s0.375,2.531,0.375,2.531s-2,2.594-2.719,2.594s-0.906-0.875-0.906-0.875s-0.406-0.281-0.719-0.312s-6.406-0.062-6.812-0.031    s-2.812,0.156-2.812,0.156s-1.094,1.188-1.438,1.844s-0.531,1.406-0.531,1.406s2.375-0.812,2.812-1.125s1.531-0.875,2.469-0.719    s2.844,1.188,4.312,1.469s6.312,1.531,7.438,1.75s3.219,0.875,3.219,0.875s-0.281-10.75-1.062-13.406s-1.875-7.969-2.281-9.094    s-2.062-5.281-2.156-5.469s-1.219-2.406-1.219-2.781s2.219,3.656,2.219,3.656s4.281,9.156,4.781,10.906s2.281,7.469,2.469,8.5    s0.719,4.875,1,5.844s0.562,1.844,0.562,1.844s-1.625,1.375-2.5,2.25s-1.812,1.438-1.812,1.438s-1.25-1.031-2.25-1.656    s-4.531-1.688-5.594-2.094s-5.562-1.438-7.812-1.219s-2.562,0.438-3.375,1s-0.969,1-0.969,1s3.312,0.469,4.406,0.469    s3.094-0.094,3.094-0.094s5.719,5.594,6.75,6.469s4.812,4.156,5.906,4.969s2.688,2.312,3.562,2.688s1.911,0.531,2.531,0.219    s0.62-0.438,0.62-0.438s0.067,6.812-0.339,10.031s-1.125,8.188-3.062,13.562s-6.75,14.75-6.75,14.75s4.812-11.125,5.625-20.062    s0.438-14.375,0.438-14.375s-8.625-8.312-10.875-10.25s-4.5-4.875-6.188-5.062s-5.688-0.688-5.688-0.688s5.312,5.125,6.312,5.688    s1.375,0.125,1.375,0.125l0.5-0.062c0,0,0.188,8.562-0.125,12.688s-1,16-1.938,22.062s-2.875,12.438-3.25,13.375    s-1.812,4.312-2.312,5.062s-1.438,1.459-1.438,1.459S-341.64,110-340.64,105s2.375-8.938,2.438-17.812s0-15.125,0-15.125    s-0.25-6-0.375-7.062s-0.125-1.062,0.312-1.5s0.5-0.375,0-1.312s-2.438-3-2.438-3s-1.688-2-2.5-2.5s-0.812-0.5-0.812-0.5    s-0.812-0.25-0.125,1.312s1.438,1.938,1.375,2.875s-0.75,6.688-1.438,9.875s-2.438,6.688-3.062,8.125S-349.639,82-349.639,82    s1.476-2.75-0.169-2.125"/></g><g><g><path d="M-212.001,38.246c0,0-11.114,0-13.376,2.437l-8.7-17.053c0,0-6.786,7.482-8.7,16.009     c-1.914,8.525,1.044,8.178,1.044,14.094s-1.393,15.139-0.87,20.358c0.521,5.221,1.218,13.051,6.612,20.707     c5.394,7.656,13.572,13.572,13.572,13.572s-8.179-7.83-7.83-11.658c0.348-3.828,0.174-3.307,5.22-4.872     c5.046-1.566,6.786-2.784,9.396-5.046c2.61-2.263,3.632-1.74,3.632-1.74V38.246z"/><path d="M-237.731,70.089c0,0,5.395-4.002,13.225-2.436c7.83,1.565,9.222,13.224,9.222,13.224     s-5.394,4.524-11.223,2.784c-5.829-1.739-8.439-6.612-9.832-9.048C-237.731,72.177-237.731,70.089-237.731,70.089z" fill="#FFFFFF"/><path d="M-212.001,97.06c0,0-1.021-1.218-4.502,0c-3.48,1.219-3.48,1.219-3.48,1.219s1.74,2.262,4.698,2.958     c2.958,0.695,3.284,0,3.284,0"/></g><g><path d="M-212.001,38.246c0,0,11.115,0,13.377,2.437l8.7-17.053c0,0,6.786,7.482,8.7,16.009     c1.914,8.525-1.044,8.178-1.044,14.094s1.392,15.139,0.87,20.358c-0.522,5.221-1.218,13.051-6.612,20.707     s-13.572,13.572-13.572,13.572s8.178-7.83,7.83-11.658s-0.174-3.307-5.22-4.872c-5.047-1.566-6.786-2.784-9.396-5.046     c-2.61-2.263-3.633-1.74-3.633-1.74V38.246z"/><path d="M-186.27,70.089c0,0-5.395-4.002-13.225-2.436c-7.83,1.565-9.222,13.224-9.222,13.224     s5.394,4.524,11.223,2.784c5.829-1.739,8.439-6.612,9.831-9.048C-186.27,72.177-186.27,70.089-186.27,70.089z" fill="#FFFFFF"/><path d="M-212.001,97.06c0,0,1.022-1.218,4.503,0c3.479,1.219,3.479,1.219,3.479,1.219s-1.739,2.262-4.697,2.958     c-2.958,0.695-3.285,0-3.285,0"/></g></g><g><g><path d="M-73.251,25.719c0,0-13.874-0.448-20.588,5.968c-6.715,6.416-8.06,17.904-8.06,23.873c0,5.968,0.599,14.771,0.599,14.771     s2.537,3.879,2.537,4.625s1.192,12.235,1.192,12.235s7.759,10.146,9.102,12.234s4.924,6.863,7.162,6.863s8.056,0,8.056,0V25.719z     "/><path d="M-73.251,55.56l-6.116-1.343l-2.984-22.231c0,0-9.102,1.79-11.489,3.432     c-2.387,1.641-2.387,1.641-2.387,1.641s1.193,19.099,0,24.918c-1.193,5.818-2.536,7.46-1.492,9.698s7.312,12.831,9.399,16.859     c2.09,4.029,4.775,8.058,4.775,8.058l2.089-2.238l8.205-0.148V55.56z" fill="#808284"/><polygon points="-92.646,64.661 -79.367,70.629 -81.456,73.763 -89.961,71.972 -92.646,68.391    "/><polygon fill="#808284" points="-73.251,95.547 -81.307,95.547 -83.247,97.785 -87.575,93.159 -87.575,96.591 -83.694,102.261      -80.413,101.066 -75.04,101.216 -74.443,100.618 -73.251,100.618    "/></g><g><path d="M-73.251,25.719c0,0,13.874-0.448,20.588,5.968c6.715,6.416,8.06,17.904,8.06,23.873c0,5.968-0.599,14.771-0.599,14.771     s-2.537,3.879-2.537,4.625s-1.192,12.235-1.192,12.235s-7.759,10.146-9.103,12.234c-1.343,2.089-4.924,6.863-7.161,6.863     c-2.238,0-8.056,0-8.056,0V25.719z"/><path d="M-73.251,55.56l6.116-1.343l2.984-22.231c0,0,9.102,1.79,11.488,3.432     c2.388,1.641,2.388,1.641,2.388,1.641s-1.193,19.099,0,24.918c1.193,5.818,2.536,7.46,1.492,9.698     c-1.045,2.238-7.312,12.831-9.4,16.859c-2.089,4.029-4.774,8.058-4.774,8.058l-2.089-2.238l-8.205-0.148V55.56z" fill="#808284"/><polygon points="-53.855,64.661 -67.135,70.629 -65.046,73.763 -56.541,71.972 -53.855,68.391    "/><polygon fill="#808284" points="-73.251,95.547 -65.195,95.547 -63.255,97.785 -58.928,93.159 -58.928,96.591 -62.808,102.261      -66.089,101.066 -71.462,101.216 -72.059,100.618 -73.251,100.618    "/></g></g><g><g><polygon points="64,30.93 96.501,30.93 112.252,50.485 64,107.495    "/><polygon fill="#FFFFFF" points="64,35.246 93.958,35.246 106.295,50.563 64,100.678    "/></g><g><polygon points="64,30.93 31.499,30.93 15.748,50.485 64,107.495    "/><polygon fill="#FFFFFF" points="64,35.246 34.042,35.246 21.705,50.563 64,100.678    "/></g><path d="M82.096,49.709c0,0-1.812-10.09-12.419-12.418c-10.607-2.329-17.335,0-20.181,1.293c-2.846,1.294-6.727,4.398-4.916,7.503    c1.812,3.104,3.105,4.425,8.279,6.353c5.175,1.927,14.23,0.831,21.733,1.25c7.503,0.418,14.229,1.453,18.11,5.075    s3.881,3.622,3.881,3.622L77.438,85.154c0,0-4.916,3.363-12.419,2.846c-7.503-0.517-12.936-2.846-12.936-2.846l-3.105-1.552    l-4.861-7.504c0,0,0.463-3.104,7.708-2.328c7.244,0.776,10.866,4.916,13.194,5.951c2.329,1.034,5.941,2.144,13.454-1.294    s4.657-2.587,4.657-2.587s2.069-1.035,0.517-3.105c-1.552-2.069-4.345-2.13-13.297-3.522c-8.953-1.393-23.334-2.428-26.233-2.428    c-2.9,0-11.18-1.553-11.18-1.553l-4.139-5.691c0,0-1.812-7.762,1.552-13.972c3.363-6.209,12.678-10.349,12.678-10.349L56.74,33.41    h18.111c0,0,5.95,2.846,8.021,5.433c2.069,2.587,2.069,2.587,2.069,2.587l5.434-6.727h6.209l2.328,3.104v12.16L82.096,49.709z"/></g></g></svg>